# Blender v2.72 (sub 0) OBJ File: 'axes.blend'
# www.blender.org
mtllib axes.mtl
o Cube_Cube.001
v -0.127747 -0.127747 0.120861
v -0.127747 -0.127747 -0.134632
v 0.127747 -0.127747 -0.134632
v 0.127747 -0.127747 0.120861
v -0.127747 0.127747 0.120861
v -0.127747 0.127747 -0.134632
v 0.127747 0.127747 -0.134632
v 0.127747 0.127747 0.120861
v -0.127747 -0.127747 -0.134632
v 0.127747 -0.127747 -0.134632
v -0.127747 0.127747 -0.134632
v 0.127747 0.127747 -0.134632
v -0.127747 -0.127747 -0.949310
v 0.127747 -0.127747 -0.949310
v -0.127747 0.127747 -0.949310
v 0.127747 0.127747 -0.949310
v 0.948749 -0.127747 -0.134632
v 0.948749 -0.127747 0.120861
v 0.948749 0.127747 -0.134632
v 0.948749 0.127747 0.120861
v -0.127747 0.986693 0.120861
v -0.127747 0.986693 -0.134632
v 0.127747 0.986693 -0.134632
v 0.127747 0.986693 0.120861
vt 0.680014 0.272539
vt 0.680014 0.407855
vt 0.544697 0.407855
vt 0.544697 0.455303
vt 0.544697 0.452944
vt 0.679888 0.452943
vt 0.000381 0.592144
vt 0.435207 0.592144
vt 0.435207 0.727461
vt 0.136460 0.999619
vt 0.136460 0.864302
vt 0.271776 0.864302
vt 0.952171 0.272539
vt 0.952171 0.407855
vt 0.816855 0.407855
vt 0.408618 0.000381
vt 0.543935 0.000381
vt 0.543935 0.455303
vt 0.544697 0.000381
vt 0.976173 0.000381
vt 0.976173 0.135698
vt 0.868208 0.728223
vt 0.870568 0.728223
vt 0.870568 0.863415
vt 0.679909 0.408618
vt 0.679909 0.410978
vt 0.544697 0.410978
vt 0.870568 0.727356
vt 0.868208 0.727356
vt 0.868208 0.592144
vt 0.407855 0.864302
vt 0.407855 0.999619
vt 0.272539 0.999619
vt 0.435970 0.592144
vt 0.867446 0.592145
vt 0.867446 0.727461
vt 0.435970 0.728223
vt 0.867446 0.728224
vt 0.867446 0.863540
vt 0.544697 0.136460
vt 0.976173 0.136460
vt 0.976173 0.271776
vt 0.680776 0.407855
vt 0.680776 0.272539
vt 0.816092 0.272539
vt 0.000381 0.728223
vt 0.435207 0.728223
vt 0.435207 0.863540
vt 0.000381 0.456065
vt 0.435207 0.456066
vt 0.435207 0.591382
vt 0.435970 0.456066
vt 0.870796 0.456065
vt 0.870796 0.591382
vt 0.000381 0.864302
vt 0.135698 0.864302
vt 0.135698 0.999619
vt 0.135698 0.000381
vt 0.135698 0.455303
vt 0.000381 0.455303
vt 0.272539 0.000381
vt 0.407856 0.000381
vt 0.407856 0.455303
vt 0.271777 0.000381
vt 0.271777 0.455303
vt 0.136460 0.455303
vt 0.544697 0.272539
vt 0.679888 0.455303
vt 0.000381 0.727461
vt 0.271776 0.999619
vt 0.816855 0.272539
vt 0.408618 0.455303
vt 0.544697 0.135698
vt 0.868208 0.863415
vt 0.544697 0.408618
vt 0.870568 0.592144
vt 0.272539 0.864302
vt 0.435970 0.727461
vt 0.435970 0.863540
vt 0.544697 0.271776
vt 0.816092 0.407855
vt 0.000381 0.863540
vt 0.000381 0.591382
vt 0.435970 0.591382
vt 0.000381 0.999619
vt 0.000381 0.000381
vt 0.272539 0.455303
vt 0.136460 0.000381
vn -1.000000 0.000000 0.000000
vn 0.000000 0.000000 1.000000
vn 0.000000 -1.000000 0.000000
vn 0.000000 0.000000 -1.000000
vn 1.000000 0.000000 0.000000
vn 0.000000 1.000000 0.000000
usemtl Material.001
s off
f 6/1/1 2/2/1 1/3/1
f 2/4/2 9/5/2 10/6/2
f 3/7/3 17/8/3 18/9/3
f 5/10/2 1/11/2 4/12/2
f 2/13/3 3/14/3 4/15/3
f 5/16/2 8/17/2 24/18/2
f 9/19/3 13/20/3 14/21/3
f 3/22/2 10/23/2 12/24/2
f 7/25/2 12/26/2 11/27/2
f 6/28/2 11/29/2 9/30/2
f 16/31/4 14/32/4 13/33/4
f 10/34/5 14/35/5 16/36/5
f 12/37/6 16/38/6 15/39/6
f 11/40/1 15/41/1 13/42/1
f 20/43/5 18/44/5 17/45/5
f 4/46/2 18/47/2 20/48/2
f 8/49/6 20/50/6 19/51/6
f 7/52/4 19/53/4 17/54/4
f 23/55/6 22/56/6 21/57/6
f 7/58/5 23/59/5 24/60/5
f 7/61/4 6/62/4 22/63/4
f 5/64/1 21/65/1 22/66/1
f 5/67/1 6/1/1 1/3/1
f 3/68/2 2/4/2 10/6/2
f 4/69/3 3/7/3 18/9/3
f 8/70/2 5/10/2 4/12/2
f 1/71/3 2/13/3 4/15/3
f 21/72/2 5/16/2 24/18/2
f 10/73/3 9/19/3 14/21/3
f 7/74/2 3/22/2 12/24/2
f 6/75/2 7/25/2 11/27/2
f 2/76/2 6/28/2 9/30/2
f 15/77/4 16/31/4 13/33/4
f 12/78/5 10/34/5 16/36/5
f 11/79/6 12/37/6 15/39/6
f 9/80/1 11/40/1 13/42/1
f 19/81/5 20/43/5 17/45/5
f 8/82/2 4/46/2 20/48/2
f 7/83/6 8/49/6 19/51/6
f 3/84/4 7/52/4 17/54/4
f 24/85/6 23/55/6 21/57/6
f 8/86/5 7/58/5 24/60/5
f 23/87/4 7/61/4 22/63/4
f 6/88/1 5/64/1 22/66/1
