# Blender v2.76 (sub 0) OBJ File: ''
# www.blender.org
mtllib piramidT.mtl
o piramid
v 1.000000 -1.000000 0.500000
v 1.000000 1.000000 0.500000
v -1.000000 1.000000 0.500000
v -1.000000 -1.000000 0.500000
v 0.000000 0.000000 -0.500000
vt 0.502002 0.498999
vt 0.998999 0.498999
vt 0.998999 0.002002
vt 0.501001 0.497998
vt 0.997998 0.001001
vt 0.501001 0.001001
vt 0.498999 0.002002
vt 0.002002 0.498999
vt 0.498999 0.498999
vt 0.498999 0.502002
vt 0.002002 0.998999
vt 0.498999 0.998999
vt 0.001001 0.997998
vt 0.497998 0.501001
vt 0.001001 0.501001
vt 0.001001 0.497998
vt 0.497998 0.001001
vt 0.001001 0.001001
vn 0.000000 -0.000000 1.000000
vn -0.707100 -0.000000 0.707100
vn 0.000000 -0.707100 0.707100
vn 0.707100 -0.000000 0.707100
vn 0.000000 0.707100 0.707100
usemtl None
s off
f 1/1/1 2/2/1 3/3/1
f 1/4/1 3/5/1 4/6/1
f 1/7/2 2/8/2 5/9/2
f 2/10/3 3/11/3 5/12/3
f 3/13/4 4/14/4 5/15/4
f 4/16/5 1/17/5 5/18/5
